<svg height="512" viewBox="0 0 64 64" width="512" xmlns="http://www.w3.org/2000/svg"><g id="Report-Ranking"><path d="m59 6h-1v-1a3 3 0 0 0 -3-3h-50a3 3 0 0 0 -3 3v50a3 3 0 0 0 3 3h1v1a3 3 0 0 0 3 3h50a3 3 0 0 0 3-3v-50a3 3 0 0 0 -3-3zm-54-2h50a1 1 0 0 1 1 1v5h-52v-5a1 1 0 0 1 1-1zm-1 51v-43h52v43a1 1 0 0 1 -1 1h-50a1 1 0 0 1 -1-1zm56 4a1 1 0 0 1 -1 1h-50a1 1 0 0 1 -1-1v-1h47a3 3 0 0 0 3-3v-47h1a1 1 0 0 1 1 1z"/><path d="m8 6h2v2h-2z"/><path d="m12 6h2v2h-2z"/><path d="m16 6h2v2h-2z"/><path d="m36 40h-2v-17a1 1 0 0 0 -1-1h-4a1 1 0 0 0 -1 1v17h-2v-11a1 1 0 0 0 -1-1h-4a1 1 0 0 0 -1 1v11h-2v-7a1 1 0 0 0 -1-1h-4a1 1 0 0 0 -1 1v7h-2v-22h-2v23a1 1 0 0 0 1 1h27zm-4-16v7h-2v-7zm-2 9h2v7h-2zm-6-3v4h-2v-4zm-2 6h2v4h-2zm-6-2v2h-2v-2zm-2 4h2v2h-2z"/><path d="m19 22.414 2.293 2.293a1 1 0 0 0 1.414 0l7.293-7.293v1.586h2v-4a1 1 0 0 0 -1-1h-4v2h1.586l-6.586 6.586-2.293-2.293a1 1 0 0 0 -1.414 0l-4 4 1.414 1.414z"/><path d="m38 18h4v2h-4z"/><path d="m44 18h8v2h-8z"/><path d="m38 22h14v2h-14z"/><path d="m38 26h14v2h-14z"/><path d="m12 44h4v2h-4z"/><path d="m18 44h12v2h-12z"/><path d="m12 48h18v2h-18z"/><path d="m12 52h18v2h-18z"/><path d="m34 44h4v2h-4z"/><path d="m40 44h12v2h-12z"/><path d="m34 48h18v2h-18z"/><path d="m34 52h18v2h-18z"/></g></svg>